<svg width="150" height="150" viewBox="0 0 150 150" fill="none" xmlns="http://www.w3.org/2000/svg">
<g clip-path="url(#clip0_4_749)">
<path d="M74.9999 150.723C116.421 150.723 150 116.982 150 75.3614C150 33.7404 116.421 -3.05176e-05 74.9999 -3.05176e-05C33.5785 -3.05176e-05 -0.00012207 33.7404 -0.00012207 75.3614C-0.00012207 116.982 33.5785 150.723 74.9999 150.723Z" fill="#F2F2F2"/>
<path d="M84.1816 118.142L67.1634 118.118C65.0323 118.496 63.1017 119.616 61.7103 121.281C60.3189 122.946 59.5556 125.051 59.5543 127.225V156.67H91.6301V127.225C91.629 125.078 90.8855 122.999 89.5267 121.342C88.168 119.685 86.2786 118.554 84.1816 118.142Z" fill="#333333"/>
<path d="M75.5937 100.363H75.5907C70.8762 100.363 67.0543 104.203 67.0543 108.941V118.276C67.0543 123.014 70.8762 126.854 75.5907 126.854H75.5937C80.3082 126.854 84.1301 123.014 84.1301 118.276V108.941C84.1301 104.203 80.3082 100.363 75.5937 100.363Z" fill="white"/>
<path d="M108.381 88.6288C126.489 70.433 126.489 40.9318 108.381 22.7361C90.2725 4.54032 60.9128 4.54033 42.8043 22.7361C24.6958 40.9319 24.6958 70.433 42.8043 88.6288C60.9128 106.825 90.2725 106.825 108.381 88.6288Z" fill="#333333"/>
<path d="M55.6183 110.226C61.0395 104.779 61.0395 95.9473 55.6183 90.5C50.1971 85.0527 41.4076 85.0527 35.9865 90.5C30.5653 95.9473 30.5653 104.779 35.9865 110.226C41.4076 115.674 50.1971 115.674 55.6183 110.226Z" fill="#333333"/>
<path d="M34.3968 111.331C34.3968 115.03 32.9343 118.578 30.3309 121.194C27.7276 123.81 24.1967 125.28 20.515 125.28C9.38168 125.28 0.515015 111.331 0.515015 111.331C0.515015 111.331 8.62108 97.3853 20.515 97.3853C24.1962 97.3853 27.7266 98.8544 30.3299 101.47C32.9331 104.085 34.396 107.632 34.3968 111.331Z" fill="#333333"/>
<path d="M117.144 105.619C120.037 98.485 116.627 90.345 109.527 87.438C102.427 84.531 94.3259 87.9577 91.4328 95.0918C88.5398 102.226 91.9501 110.366 99.05 113.273C106.15 116.18 114.251 112.753 117.144 105.619Z" fill="#333333"/>
<path d="M115.697 111.331C115.697 115.03 117.159 118.578 119.763 121.194C122.366 123.81 125.897 125.28 129.579 125.28C140.712 125.28 149.579 111.331 149.579 111.331C149.579 111.331 141.473 97.3853 129.579 97.3853C125.898 97.3853 122.367 98.8544 119.764 101.47C117.161 104.085 115.698 107.632 115.697 111.331Z" fill="#333333"/>
<path d="M43.6011 83.4969C45.3748 79.1077 43.2716 74.1048 38.9035 72.3225C34.5354 70.5403 29.5565 72.6536 27.7828 77.0428C26.009 81.4319 28.1122 86.4349 32.4803 88.2171C36.8485 89.9994 41.8274 87.8861 43.6011 83.4969Z" fill="white"/>
<path d="M122.554 82.2102C123.624 77.5966 120.77 72.9849 116.178 71.9095C111.587 70.8342 106.997 73.7026 105.927 78.3161C104.857 82.9297 107.711 87.5414 112.303 88.6168C116.894 89.6921 121.484 86.8237 122.554 82.2102Z" fill="white"/>
<path d="M33.7845 67.3625C34.0306 78.3401 38.5434 88.7849 46.3571 96.4613C54.1707 104.138 64.6643 108.436 75.5921 108.436C86.5199 108.436 97.0136 104.138 104.827 96.4613C112.641 88.7849 117.154 78.3401 117.4 67.3625C91.3452 44.7084 63.4734 44.7084 33.7845 67.3625Z" fill="white"/>
<path d="M75.5908 25.3519C64.4999 25.3519 53.8633 29.779 46.0208 37.6592C38.1784 45.5394 33.7726 56.2273 33.7726 67.3716H91.6302L95.1514 59.6345L98.4665 67.3625H117.403C117.4 56.2208 112.994 45.5362 105.154 37.6581C97.3127 29.78 86.679 25.3535 75.5908 25.3519Z" fill="#333333"/>
<path d="M117.809 67.7735H98.1818L95.1515 60.6484L91.906 67.7735H33.3727V67.3625C33.3727 43.9715 52.3121 24.9408 75.5909 24.9408C98.8697 24.9408 117.809 43.9715 117.809 67.3625V67.7735ZM98.7333 66.9514H116.988C116.767 44.2029 98.2818 25.766 75.5909 25.766C52.9 25.766 34.4151 44.2029 34.1969 66.9514H91.3666L95.1515 58.6205L98.7333 66.9514Z" fill="#333333"/>
<path d="M56.0363 90.5525C60.5198 90.5525 64.1544 88.963 64.1544 87.0021C64.1544 85.0413 60.5198 83.4518 56.0363 83.4518C51.5527 83.4518 47.9181 85.0413 47.9181 87.0021C47.9181 88.963 51.5527 90.5525 56.0363 90.5525Z" fill="#F2F2F2"/>
<path d="M95.1483 90.5525C99.6319 90.5525 103.267 88.963 103.267 87.0021C103.267 85.0413 99.6319 83.4518 95.1483 83.4518C90.6648 83.4518 87.0302 85.0413 87.0302 87.0021C87.0302 88.963 90.6648 90.5525 95.1483 90.5525Z" fill="#F2F2F2"/>
<path d="M62.4424 78.9392C62.1161 78.9392 61.8032 78.809 61.5725 78.5771C61.3417 78.3453 61.2121 78.0309 61.2121 77.703C61.1802 76.4107 60.6469 75.1822 59.7261 74.2796C58.8052 73.377 57.5697 72.8717 56.2833 72.8717C54.9969 72.8717 53.7614 73.377 52.8405 74.2796C51.9197 75.1822 51.3864 76.4107 51.3545 77.703C51.3545 78.0309 51.2249 78.3453 50.9942 78.5771C50.7635 78.809 50.4505 78.9392 50.1242 78.9392C49.7979 78.9392 49.485 78.809 49.2543 78.5771C49.0235 78.3453 48.8939 78.0309 48.8939 77.703C48.9331 75.7598 49.7288 73.9094 51.1103 72.5491C52.4918 71.1888 54.349 70.4268 56.2833 70.4268C58.2176 70.4268 60.0748 71.1888 61.4563 72.5491C62.8378 73.9094 63.6335 75.7598 63.6727 77.703C63.6727 78.0309 63.5431 78.3453 63.3124 78.5771C63.0816 78.809 62.7687 78.9392 62.4424 78.9392Z" fill="#333333"/>
<path d="M101.061 78.9392C100.734 78.9392 100.421 78.809 100.191 78.5771C99.9599 78.3453 99.8303 78.0309 99.8303 77.703C99.7984 76.4107 99.2651 75.1822 98.3442 74.2796C97.4234 73.377 96.1879 72.8717 94.9015 72.8717C93.615 72.8717 92.3796 73.377 91.4587 74.2796C90.5379 75.1822 90.0046 76.4107 89.9727 77.703C89.9727 78.0309 89.8431 78.3453 89.6123 78.5771C89.3816 78.809 89.0687 78.9392 88.7424 78.9392C88.4161 78.9392 88.1032 78.809 87.8724 78.5771C87.6417 78.3453 87.5121 78.0309 87.5121 77.703C87.5512 75.7598 88.347 73.9094 89.7285 72.5491C91.11 71.1888 92.9672 70.4268 94.9015 70.4268C96.8357 70.4268 98.6929 71.1888 100.074 72.5491C101.456 73.9094 102.252 75.7598 102.291 77.703C102.291 78.0309 102.161 78.3453 101.931 78.5771C101.7 78.809 101.387 78.9392 101.061 78.9392Z" fill="#333333"/>
<path d="M82.1212 87.3614C82.1212 90.3637 79.2 92.7996 75.5939 92.7996C71.9879 92.7996 69.0697 90.3637 69.0697 87.3614C69.0697 84.3591 82.1212 84.3591 82.1212 87.3614Z" fill="#333333"/>
<path d="M91.7484 138.093H84.6515V192.155H91.7484V138.093Z" fill="white"/>
<path d="M83.8817 126.686L84.0241 138.169L91.7484 138.093L91.6059 126.619C91.5704 125.608 91.1435 124.651 90.4161 123.952C89.6887 123.252 88.7182 122.865 87.7114 122.874C86.7045 122.883 85.7409 123.286 85.0256 123.998C84.3103 124.71 83.8998 125.675 83.8817 126.686Z" fill="#333333"/>
<path d="M59.4483 192.158H66.5453V138.096H59.4483L59.4483 192.158Z" fill="white"/>
<path d="M67.3149 126.686L67.1755 138.169L59.4513 138.093L59.5907 126.619C59.6262 125.608 60.0531 124.651 60.7805 123.952C61.508 123.252 62.4784 122.865 63.4853 122.874C64.4921 122.883 65.4558 123.286 66.1711 123.998C66.8864 124.71 67.2968 125.675 67.3149 126.686Z" fill="#333333"/>
</g>
<defs>
<clipPath id="clip0_4_749">
<rect width="150" height="150" fill="white"/>
</clipPath>
</defs>
</svg>
