<svg width="150" height="150" viewBox="0 0 150 150" fill="none" xmlns="http://www.w3.org/2000/svg">
<g clip-path="url(#clip0_4_788)">
<path d="M75.3614 150.723C116.982 150.723 150.723 116.982 150.723 75.3614C150.723 33.7405 116.982 0 75.3614 0C33.7405 0 0 33.7405 0 75.3614C0 116.982 33.7405 150.723 75.3614 150.723Z" fill="#F2F2F2"/>
<path d="M64.4635 129.713H86.4538C87.8113 129.713 89.1132 130.252 90.0731 131.212C91.033 132.172 91.5723 133.474 91.5723 134.832V159.982H59.345V134.828C59.3458 133.471 59.8854 132.17 60.8452 131.211C61.805 130.252 63.1065 129.713 64.4635 129.713Z" fill="#333333"/>
<path d="M65.6018 129.384H67.9586C68.0846 129.384 68.2054 129.434 68.2945 129.523C68.3836 129.612 68.4336 129.733 68.4336 129.859V159.657H65.1299V129.859C65.1299 129.734 65.1795 129.613 65.2679 129.524C65.3564 129.435 65.4764 129.385 65.6018 129.384Z" fill="white"/>
<path d="M83.0341 129.384H85.3909C85.5168 129.384 85.6377 129.434 85.7267 129.523C85.8158 129.612 85.8659 129.733 85.8659 129.859V159.657H82.5621V129.859C82.5621 129.734 82.6118 129.613 82.7002 129.524C82.7886 129.435 82.9086 129.385 83.0341 129.384Z" fill="white"/>
<path d="M65.1454 140.172H59.3265V161.654H65.1454V140.172Z" fill="#333333"/>
<path d="M85.9084 161.651H91.575V140.169H85.9084V161.651Z" fill="#333333"/>
<path d="M68.434 119.141H82.5776V132.843C82.5784 133.772 82.3963 134.691 82.0417 135.549C81.6871 136.407 81.167 137.187 80.511 137.844C79.8551 138.502 79.0761 139.023 78.2186 139.379C77.3611 139.735 76.4419 139.919 75.5134 139.92C73.6382 139.92 71.8399 139.175 70.5139 137.849C69.188 136.523 68.4431 134.724 68.4431 132.849V119.147L68.434 119.141Z" fill="#333333"/>
<path d="M45.8658 102.306C48.2083 99.9631 48.2083 96.165 45.8658 93.8225C43.5232 91.4799 39.7252 91.4799 37.3827 93.8225C35.0401 96.165 35.0401 99.9631 37.3827 102.306C39.7252 104.648 43.5232 104.648 45.8658 102.306Z" fill="#333333"/>
<path d="M110.112 104.029C113.401 103.626 115.74 100.634 115.337 97.3459C114.935 94.0576 111.943 91.7183 108.654 92.1209C105.366 92.5234 103.027 95.5155 103.429 98.8038C103.832 102.092 106.824 104.431 110.112 104.029Z" fill="#333333"/>
<path d="M33.5483 44.8423C42.932 44.8423 50.5389 37.2354 50.5389 27.8518C50.5389 18.4681 42.932 10.8612 33.5483 10.8612C24.1647 10.8612 16.5577 18.4681 16.5577 27.8518C16.5577 37.2354 24.1647 44.8423 33.5483 44.8423Z" fill="#333333"/>
<path d="M44.111 50.3536L40.6185 46.8642C39.0415 45.2776 38.1564 43.1316 38.1564 40.8946C38.1564 38.6577 39.0415 36.5116 40.6185 34.9251C42.2051 33.3472 44.3518 32.4615 46.5895 32.4615C48.8272 32.4615 50.9739 33.3472 52.5606 34.9251L56.05 38.4145C57.627 40.0011 58.5121 42.1471 58.5121 44.3841C58.5121 46.621 57.627 48.7671 56.05 50.3536C54.4643 51.9321 52.3179 52.8182 50.0805 52.8182C47.8431 52.8182 45.6967 51.9321 44.111 50.3536Z" fill="#333333"/>
<path d="M117.905 44.8423C127.288 44.8423 134.895 37.2354 134.895 27.8518C134.895 18.4681 127.288 10.8612 117.905 10.8612C108.521 10.8612 100.914 18.4681 100.914 27.8518C100.914 37.2354 108.521 44.8423 117.905 44.8423Z" fill="#333333"/>
<path d="M107.341 50.3536L110.834 46.8642C112.411 45.2776 113.296 43.1316 113.296 40.8946C113.296 38.6577 112.411 36.5116 110.834 34.9251C109.247 33.3472 107.101 32.4615 104.863 32.4615C102.625 32.4615 100.478 33.3472 98.8918 34.9251L95.4023 38.4145C93.8239 40.0003 92.9377 42.1467 92.9377 44.3841C92.9377 46.6215 93.8239 48.7679 95.4023 50.3536C96.9881 51.9321 99.1344 52.8182 101.372 52.8182C103.609 52.8182 105.756 51.9321 107.341 50.3536Z" fill="#333333"/>
<path d="M104.882 96.5988C121.107 80.3746 121.107 54.07 104.882 37.8457C88.6582 21.6215 62.3536 21.6215 46.1294 37.8457C29.9051 54.07 29.9051 80.3746 46.1294 96.5988C62.3536 112.823 88.6582 112.823 104.882 96.5988Z" fill="#333333"/>
<path d="M108.794 76.1318C108.794 57.7479 93.8908 42.8449 75.5069 42.8449C57.123 42.8449 42.22 57.7479 42.22 76.1318V92.76C42.22 111.144 57.123 126.047 75.5069 126.047C93.8908 126.047 108.794 111.144 108.794 92.76V76.1318Z" fill="white"/>
<path d="M111.51 76.8047C111.51 56.0537 94.2821 39.0692 73.5616 40.1775C64.3677 40.6861 55.717 44.6933 49.3836 51.3771C43.0503 58.061 39.5144 66.9148 39.5012 76.1227C55.3987 72.4201 67.9924 65.6512 75.5072 54.1689C82.6628 67.2498 95.0525 74.3505 111.51 76.8047Z" fill="#333333"/>
<path d="M55.24 93.8319C55.24 94.249 54.6311 94.587 53.8668 94.587C53.1025 94.587 52.4966 94.249 52.4966 93.8319C52.4966 93.4147 53.1056 93.0798 53.8668 93.0798C54.628 93.0798 55.24 93.4177 55.24 93.8319Z" fill="#333333"/>
<path d="M59.5367 93.8319C59.5367 94.249 58.9277 94.587 58.1634 94.587C57.3991 94.587 56.7902 94.249 56.7902 93.8319C56.7902 93.4147 57.3991 93.0798 58.1634 93.0798C58.9277 93.0798 59.5367 93.4177 59.5367 93.8319Z" fill="#333333"/>
<path d="M57.548 95.8141C57.548 96.2312 56.9391 96.5692 56.1748 96.5692C55.4105 96.5692 54.8076 96.2191 54.8076 95.8141C54.8076 95.4091 55.4166 95.059 56.1778 95.059C56.9391 95.059 57.548 95.3969 57.548 95.8141Z" fill="#333333"/>
<path d="M61.8875 95.8141C61.8875 96.2312 61.2785 96.5692 60.5143 96.5692C59.75 96.5692 59.144 96.2312 59.144 95.8141C59.144 95.3969 59.753 95.059 60.5143 95.059C61.2755 95.059 61.8875 95.3969 61.8875 95.8141Z" fill="#333333"/>
<path d="M63.8301 93.8319C63.8301 94.249 63.2212 94.587 62.4599 94.587C61.6987 94.587 61.0867 94.249 61.0867 93.8319C61.0867 93.4147 61.6957 93.0798 62.4599 93.0798C63.2242 93.0798 63.8301 93.4177 63.8301 93.8319Z" fill="#333333"/>
<path d="M90.5854 93.8319C90.5854 94.249 89.9764 94.587 89.2121 94.587C88.4479 94.587 87.8419 94.249 87.8419 93.8319C87.8419 93.4147 88.4509 93.0798 89.2121 93.0798C89.9734 93.0798 90.5854 93.4177 90.5854 93.8319Z" fill="#333333"/>
<path d="M94.8819 93.8319C94.8819 94.249 94.2729 94.587 93.5086 94.587C92.7444 94.587 92.1384 94.249 92.1384 93.8319C92.1384 93.4147 92.7474 93.0798 93.5086 93.0798C94.2699 93.0798 94.8819 93.4177 94.8819 93.8319Z" fill="#333333"/>
<path d="M92.8935 95.8141C92.8935 96.2312 92.2845 96.5692 91.5233 96.5692C90.762 96.5692 90.15 96.2312 90.15 95.8141C90.15 95.3969 90.759 95.059 91.5233 95.059C92.2875 95.059 92.8935 95.3969 92.8935 95.8141Z" fill="#333333"/>
<path d="M97.2327 95.8141C97.2327 96.2312 96.6237 96.5692 95.8595 96.5692C95.0952 96.5692 94.4893 96.2312 94.4893 95.8141C94.4893 95.3969 95.0982 95.059 95.8595 95.059C96.6207 95.059 97.2327 95.3969 97.2327 95.8141Z" fill="#333333"/>
<path d="M99.178 93.8319C99.178 94.249 98.569 94.587 97.8048 94.587C97.0405 94.587 96.4315 94.249 96.4315 93.8319C96.4315 93.4147 97.0405 93.0798 97.8048 93.0798C98.569 93.0798 99.178 93.4177 99.178 93.8319Z" fill="#333333"/>
<path d="M81.9742 99.6738C82.5581 96.1006 80.1347 92.7306 76.5615 92.1468C72.9883 91.5629 69.6183 93.9863 69.0345 97.5595C68.4506 101.133 70.874 104.503 74.4472 105.087C78.0204 105.67 81.3904 103.247 81.9742 99.6738Z" fill="#F2F2F2"/>
<path d="M64.1133 87.7238C63.7531 87.7238 63.4077 87.5807 63.153 87.326C62.8983 87.0713 62.7552 86.7259 62.7552 86.3657C62.731 85.6224 62.4187 84.9176 61.8842 84.4003C61.3498 83.8831 60.6352 83.5939 59.8915 83.5939C59.1478 83.5939 58.4332 83.8831 57.8987 84.4003C57.3643 84.9176 57.052 85.6224 57.0278 86.3657C57.0278 86.7259 56.8847 87.0713 56.63 87.326C56.3753 87.5807 56.0299 87.7238 55.6697 87.7238C55.3096 87.7238 54.9641 87.5807 54.7095 87.326C54.4548 87.0713 54.3117 86.7259 54.3117 86.3657C54.2943 85.622 54.4258 84.8823 54.6984 84.1902C54.971 83.498 55.3792 82.8673 55.8991 82.3352C56.4189 81.803 57.0399 81.3802 57.7255 81.0915C58.4112 80.8028 59.1476 80.6541 59.8915 80.6541C60.6354 80.6541 61.3718 80.8028 62.0574 81.0915C62.7431 81.3802 63.364 81.803 63.8839 82.3352C64.4038 82.8673 64.812 83.498 65.0846 84.1902C65.3572 84.8823 65.4887 85.622 65.4713 86.3657C65.4713 86.7259 65.3282 87.0713 65.0735 87.326C64.8189 87.5807 64.4734 87.7238 64.1133 87.7238Z" fill="#333333"/>
<path d="M93.4935 87.7238C93.1333 87.7238 92.7879 87.5807 92.5332 87.326C92.2786 87.0713 92.1355 86.7259 92.1355 86.3657C92.1112 85.6224 91.7989 84.9176 91.2645 84.4003C90.7301 83.8831 90.0155 83.5939 89.2717 83.5939C88.528 83.5939 87.8134 83.8831 87.279 84.4003C86.7446 84.9176 86.4323 85.6224 86.408 86.3657C86.408 86.7259 86.2649 87.0713 86.0103 87.326C85.7556 87.5807 85.4102 87.7238 85.05 87.7238C84.6898 87.7238 84.3444 87.5807 84.0897 87.326C83.835 87.0713 83.692 86.7259 83.692 86.3657C83.6746 85.622 83.8061 84.8823 84.0787 84.1902C84.3513 83.498 84.7595 82.8673 85.2793 82.3352C85.7992 81.803 86.4202 81.3802 87.1058 81.0915C87.7914 80.8028 88.5278 80.6541 89.2717 80.6541C90.0157 80.6541 90.7521 80.8028 91.4377 81.0915C92.1233 81.3802 92.7443 81.803 93.2642 82.3352C93.784 82.8673 94.1922 83.498 94.4648 84.1902C94.7374 84.8823 94.8689 85.622 94.8515 86.3657C94.8519 86.5442 94.8171 86.721 94.749 86.8859C94.6809 87.0509 94.5809 87.2007 94.4547 87.3269C94.3285 87.4531 94.1786 87.5531 94.0137 87.6212C93.8487 87.6893 93.672 87.7242 93.4935 87.7238Z" fill="#333333"/>
</g>
<defs>
<clipPath id="clip0_4_788">
<rect width="150" height="150" fill="white"/>
</clipPath>
</defs>
</svg>
